PathFileType  4	(X/Y/Z) C:\Users\antoi\Documents\MyRepositories\mobilecap\ResultsAnalysis
DataRate	CameraRate	NumFrames	NumMarkers	Units	OrigDataRate	OrigDataStartFrame	OrigNumFrames
100.0	100.0	7	51	mm	100.0	196	261
Frame#	Time	r_knee			r_shank_antsup			r_ankle			r_calc			r_5meta			r_toe			L_knee			L_shank_antsup			L_ankle			L_calc			L_5meta			L_toe			r_sh2			r_sh3			r_sh4			L_sh2			L_sh3			r_thigh1			r_thigh2			r_thigh3			r_thigh4			r_thigh5			L_thigh1			L_thigh2			L_thigh3			L_thigh4			r.ASIS			r.PSIS			L.ASIS			L.PSIS			C7			R_Shoulder			L_Shoulder			R_Sternum			L_Sternum			R_humerus			R_elbow_med			R_elbow_lat			R_forearm			R_wrist_radius			R_wrist_ulna			L_humerus			L_elbow_med			L_elbow_lat			L_forearm			L_wrist_radius			L_wrist_ulna			R_HJC			L_HJC			R_HJC_reg			L_HJC_reg			
		X1	Y1	Z1	X2	Y2	Z2	X3	Y3	Z3	X4	Y4	Z4	X5	Y5	Z5	X6	Y6	Z6	X7	Y7	Z7	X8	Y8	Z8	X9	Y9	Z9	X10	Y10	Z10	X11	Y11	Z11	X12	Y12	Z12	X13	Y13	Z13	X14	Y14	Z14	X15	Y15	Z15	X16	Y16	Z16	X17	Y17	Z17	X18	Y18	Z18	X19	Y19	Z19	X20	Y20	Z20	X21	Y21	Z21	X22	Y22	Z22	X23	Y23	Z23	X24	Y24	Z24	X25	Y25	Z25	X26	Y26	Z26	X27	Y27	Z27	X28	Y28	Z28	X29	Y29	Z29	X30	Y30	Z30	X31	Y31	Z31	X32	Y32	Z32	X33	Y33	Z33	X34	Y34	Z34	X35	Y35	Z35	X36	Y36	Z36	X37	Y37	Z37	X38	Y38	Z38	X39	Y39	Z39	X40	Y40	Z40	X41	Y41	Z41	X42	Y42	Z42	X43	Y43	Z43	X44	Y44	Z44	X45	Y45	Z45	X46	Y46	Z46	X47	Y47	Z47	X48	Y48	Z48	X49	Y49	Z49	X50	Y50	Z50	X51	Y51	Z51	

196	1.95000000	-137.54435	540.17493	-375.63247	-100.49241	439.77148	-387.49367	-257.36212	144.18122	-447.52956	-351.31105	117.01986	-506.57654	-172.06152	46.72266	-409.48247	-102.16368	68.09763	-466.86904	-41.24820	663.15896	-784.40676	-52.62811	579.49199	-805.28010	-220.05511	286.53175	-756.44239	-311.38051	255.51699	-696.81480	-139.44869	177.85718	-793.07119	-70.63827	191.57684	-736.40861	-145.94439	334.97865	-378.90139	-160.58357	467.01842	-350.52197	-220.53512	368.69985	-362.06996	-132.56370	620.41511	-797.69605	-175.65925	505.79743	-793.07053	-183.79413	865.89394	-358.27415	-136.97764	769.02563	-361.23639	-178.90333	720.87046	-337.38681	-282.97648	816.24922	-370.19375	-229.01462	715.84638	-361.20024	-137.01490	937.46329	-741.08301	-46.10644	830.92748	-755.01495	-218.20079	873.44371	-779.24807	-133.52292	765.93065	-791.56692	-185.48901	1044.36030	-408.05302	-365.91392	1090.82818	-460.85657	-202.39933	1088.49545	-650.06364	-380.03417	1111.42920	-569.42179	-150.56277	1611.02848	-498.11166	-82.98427	1591.99632	-383.49305	-118.05604	1590.77835	-646.76431	-31.50759	1510.39341	-484.67592	-39.37777	1508.34282	-545.02805	26.23381	1572.61163	-311.50468	195.97561	1461.30724	-251.34730	171.45789	1526.04458	-190.79786	258.21620	1647.84202	-277.15197	278.52845	1708.61163	-339.59944	314.57911	1697.19840	-313.67606	-146.91370	1593.37289	-765.27731	-102.07420	1476.79281	-980.59208	-127.93554	1562.69917	-978.00432	-62.55140	1599.51461	-961.75478	97.38020	1646.06139	-917.98878	107.92400	1643.49352	-957.45222	-280.87704	943.57619	-441.39334	-296.97342	986.83063	-643.13898	-252.15795	977.56546	-447.38001	-272.78766	1007.66201	-605.96681	
197	1.96000000	-148.70584	551.97507	-379.04090	-110.51528	452.46752	-388.34109	-253.52539	150.41012	-444.31645	-347.14662	127.10243	-503.24666	-170.39674	47.72187	-408.22824	-100.14522	68.25299	-465.38590	-45.11774	676.99843	-785.90322	-56.15287	592.64489	-807.27752	-218.20047	296.87287	-757.64964	-308.37543	263.90620	-697.08260	-135.95758	189.79531	-795.51265	-66.86204	204.57794	-739.58715	-152.30142	346.32515	-378.38285	-171.65595	478.35403	-351.75933	-228.46214	377.71049	-362.42508	-136.61800	632.25832	-798.70359	-177.79525	517.02088	-793.49888	-179.67510	881.67483	-360.63292	-137.61690	782.82134	-363.97677	-181.14650	736.65840	-339.82017	-281.29641	836.45060	-371.38281	-231.78635	733.48658	-362.84809	-132.13731	954.90931	-740.92296	-44.65971	845.66797	-755.58181	-215.24763	893.69069	-779.86901	-133.93226	783.85525	-793.22530	-176.39054	1063.42869	-409.00197	-357.34697	1108.44494	-458.04975	-196.91943	1111.03638	-649.52866	-373.77911	1130.79431	-565.78377	-153.67003	1633.82054	-500.87814	-86.60543	1616.42455	-384.89379	-121.63433	1613.68160	-648.44408	-33.87660	1534.34484	-486.12373	-41.44703	1532.15620	-547.41763	18.49357	1600.24953	-305.12393	187.69578	1486.93369	-238.40995	160.27285	1552.22324	-179.71387	250.15015	1673.34963	-263.42518	273.08149	1733.30666	-325.93828	308.22196	1722.28945	-298.59450	-149.83619	1618.25905	-765.84771	-112.39424	1502.36302	-983.23025	-136.42740	1588.95128	-979.23788	-70.11792	1624.99547	-964.55630	91.61000	1668.95484	-924.54306	101.00107	1666.33232	-964.12198	-270.77309	961.97679	-442.23065	-290.40312	1008.30255	-642.98280	-242.12778	996.35936	-448.28986	-266.11467	1028.98354	-605.54187	
198	1.97000000	-160.21437	567.44245	-382.87665	-121.16714	467.16880	-389.93103	-248.25851	158.29117	-440.70025	-341.07537	140.47780	-499.05701	-168.33612	49.26335	-407.06157	-97.40933	68.71461	-463.37778	-49.86371	690.34978	-787.38671	-60.81187	605.53712	-809.56026	-215.34703	306.25534	-758.93749	-304.32012	272.09557	-697.69697	-131.87807	200.02011	-797.87471	-62.55140	215.63202	-742.65987	-158.78913	359.82266	-377.98525	-183.41845	491.54352	-353.75110	-236.05369	388.76465	-363.32993	-141.99791	643.13660	-799.06246	-180.26524	526.93966	-793.41131	-175.15962	898.81636	-363.52609	-137.51250	798.02972	-367.78685	-182.44822	754.13648	-342.62702	-278.96293	858.02941	-371.95050	-233.92160	752.77260	-364.49089	-127.35908	971.94570	-741.53891	-43.65169	859.81672	-756.56281	-212.58999	913.40760	-780.29366	-135.01041	801.11155	-794.34974	-167.82680	1084.05808	-410.42659	-349.05237	1127.39106	-455.37758	-191.24265	1134.05354	-649.13622	-366.96147	1150.63501	-562.36029	-156.15264	1656.56494	-503.86721	-89.54217	1640.14620	-386.11521	-125.39789	1635.63250	-650.13997	-36.27595	1557.50569	-489.05177	-44.04033	1555.17022	-549.70239	11.26765	1626.18825	-297.66638	178.92690	1509.59639	-224.19361	148.26350	1576.08135	-168.12684	242.02149	1695.78103	-249.38958	268.09422	1754.80364	-311.78696	301.97686	1743.99516	-282.95197	-153.07934	1641.60678	-767.01722	-122.89233	1525.90917	-985.53346	-145.10929	1612.88728	-980.61000	-77.80407	1648.63512	-968.51412	85.91427	1689.05922	-932.03101	93.90867	1686.46878	-971.70202	-260.78215	981.70598	-442.79489	-283.75009	1030.25191	-642.66706	-233.02510	1017.15497	-449.37338	-259.13105	1051.03763	-605.32981	
199	1.98000000	-170.76758	585.54699	-386.73165	-131.78285	484.32369	-391.96130	-240.82462	168.06863	-436.72948	-332.21381	157.18224	-494.16122	-165.58720	51.86893	-406.11755	-93.74713	69.36409	-461.37769	-55.10213	703.53470	-788.74492	-66.15112	618.22500	-811.50261	-211.46313	314.84264	-760.49551	-299.40503	280.05174	-698.76475	-127.29881	208.85723	-800.22046	-57.68039	224.96544	-745.50148	-164.96917	375.79238	-377.79496	-195.36842	506.97100	-356.42432	-243.16967	401.93944	-364.54992	-148.10765	653.34099	-798.59639	-182.88307	536.05573	-793.30729	-170.12318	916.80740	-366.73758	-136.72651	814.20775	-372.29285	-182.87202	772.42826	-345.96132	-276.09670	880.36166	-371.79469	-235.23617	773.08573	-366.03786	-123.09518	988.18278	-742.78130	-43.21841	873.25189	-757.95517	-210.44856	932.24047	-780.64044	-136.65406	817.43907	-795.02265	-160.14220	1105.68258	-412.23602	-341.29240	1147.74183	-452.80350	-185.60149	1156.84491	-649.11847	-359.79171	1170.89437	-559.41957	-158.03082	1679.05345	-506.65343	-91.79093	1663.06526	-386.97983	-129.30805	1656.71115	-651.62872	-38.13999	1580.38975	-492.03792	-46.39937	1577.65816	-551.72137	6.12954	1648.51738	-292.28670	169.19597	1529.67316	-209.54188	135.72618	1597.56911	-156.30604	234.09347	1715.29641	-235.06554	263.58735	1773.40643	-297.04158	295.87204	1762.61918	-266.57756	-157.00023	1663.16913	-768.18874	-133.89751	1547.09241	-987.00703	-154.15589	1634.61201	-982.09347	-85.69579	1670.08607	-973.14906	79.84984	1706.54543	-940.16270	86.53184	1703.69549	-980.04522	-251.60543	1002.50832	-442.96672	-277.56775	1052.23955	-642.17804	-225.49917	1039.63272	-450.39932	-252.38551	1073.28189	-605.35541	
200	1.99000000	-180.22694	604.18351	-390.12377	-141.98362	504.03224	-394.39564	-230.43341	179.80086	-432.15512	-319.62114	177.13944	-489.21464	-161.72658	56.35433	-405.16757	-88.81878	70.31384	-459.49624	-60.56379	716.38841	-789.48793	-71.71796	630.69050	-812.74482	-206.72316	322.88802	-762.66163	-293.93203	287.63259	-700.60591	-122.05676	216.83216	-802.57239	-52.19812	233.22733	-748.03860	-170.11043	394.35878	-377.73697	-206.91869	524.50714	-359.48684	-249.37365	416.90664	-365.63534	-154.41065	663.18731	-797.56766	-185.54218	544.96218	-793.45368	-164.88127	935.32909	-370.22331	-135.85282	831.18775	-377.50841	-182.90997	791.26235	-349.87473	-272.85744	903.23667	-371.25485	-235.99658	794.05138	-367.54121	-119.56408	1003.49795	-744.60512	-43.39057	885.98197	-759.53818	-208.98786	949.96761	-780.93708	-138.88791	832.81116	-795.33669	-153.42895	1127.67730	-413.85493	-334.05605	1168.82780	-450.85325	-180.13860	1178.76170	-649.38113	-352.83382	1191.51479	-557.60116	-159.32863	1701.03112	-509.05172	-93.39988	1685.08506	-387.27093	-133.26476	1677.09120	-653.10840	-39.58740	1603.02819	-494.78387	-48.01048	1599.69233	-553.56019	2.00463	1668.54802	-287.96693	158.01227	1547.67451	-195.14476	122.85979	1616.71796	-144.62774	226.41838	1732.17171	-220.14235	259.30600	1789.32521	-281.49768	289.94731	1778.34757	-249.49292	-161.84271	1683.01511	-769.21931	-145.59869	1565.81390	-987.71867	-163.71521	1654.08651	-983.62725	-94.00407	1688.83456	-977.62282	73.13313	1721.39205	-949.02016	78.51364	1718.16436	-989.16220	-243.66725	1023.86207	-442.78563	-271.84555	1073.73676	-641.66128	-219.03093	1062.35136	-451.16480	-246.16750	1095.13928	-605.43303	
201	2.00000000	-189.95732	622.85176	-392.65673	-151.54237	525.60720	-396.92275	-217.99082	193.07113	-427.23290	-303.75499	199.52495	-484.98233	-156.92654	63.17002	-404.38459	-82.45293	72.87115	-456.91399	-66.16176	728.57222	-789.42544	-77.14599	642.83746	-813.46180	-201.35714	330.56929	-765.41843	-288.04730	294.79770	-703.43015	-115.92829	224.46630	-805.08597	-46.11363	241.06951	-750.49941	-173.43381	415.14972	-377.42527	-217.55980	543.13143	-362.72408	-253.67513	433.16497	-366.37290	-160.41725	672.86008	-796.40811	-188.07046	553.79842	-793.72032	-159.76190	953.77671	-373.98192	-135.69119	848.29291	-383.11657	-182.93137	810.19863	-354.03536	-269.13363	926.11970	-370.45179	-236.59174	815.17706	-368.98000	-116.78004	1017.91204	-746.75443	-44.20880	897.99939	-760.96511	-208.23682	966.53350	-781.02707	-141.77715	847.20624	-795.04690	-147.70835	1149.49540	-414.71457	-327.45894	1189.87213	-450.06766	-174.87487	1199.38050	-649.68037	-346.37666	1212.19520	-557.25918	-160.02581	1722.26670	-511.02649	-94.33708	1705.82599	-387.22375	-136.99512	1696.72359	-654.75641	-40.48709	1624.94309	-497.25779	-48.94031	1621.06280	-555.32999	-2.25484	1687.51524	-283.25531	145.48975	1563.80788	-181.25431	109.66486	1633.77907	-133.18928	218.86675	1746.60735	-204.63565	255.14751	1802.81799	-265.22492	284.21396	1791.38068	-231.97839	-167.55197	1701.25760	-770.25074	-157.90940	1582.25842	-988.01271	-173.86857	1671.13579	-984.81321	-103.01413	1704.59392	-981.51694	65.51153	1733.80378	-958.70990	69.45069	1730.22731	-999.14530	-237.13412	1045.20193	-442.30856	-266.30322	1094.29035	-641.23762	-213.21487	1084.08010	-451.59389	-240.37903	1116.13392	-605.50587	
202	2.01000000	-200.39768	641.76983	-394.57610	-159.47758	547.32856	-398.54500	-206.94669	207.45807	-423.27323	-288.27080	221.26855	-482.78389	-151.66710	72.87731	-404.19664	-74.95531	80.23303	-452.91762	-71.88037	740.14320	-788.92836	-82.12370	654.55335	-814.00074	-195.61834	338.00785	-768.44932	-281.92434	301.47359	-707.00437	-108.94914	232.27034	-808.02043	-39.53717	248.99387	-753.09003	-175.04236	436.67318	-376.18503	-226.44234	561.74491	-365.61604	-256.09561	450.01790	-366.62363	-165.84101	682.21458	-795.29163	-190.23241	562.33815	-793.99599	-155.10616	971.30892	-377.59526	-136.30548	864.65745	-388.17471	-183.18862	828.37689	-357.86513	-265.21343	947.84567	-369.42101	-237.24460	835.54719	-370.46291	-114.64278	1031.47097	-748.88778	-45.70796	909.26611	-762.21638	-208.13138	982.01463	-780.67161	-145.25382	860.64619	-794.00513	-142.97110	1170.50435	-414.78464	-321.70935	1210.26621	-450.65274	-169.75346	1218.49659	-649.90191	-340.45618	1232.37359	-558.04154	-160.13770	1742.42463	-512.53744	-94.66164	1724.90028	-387.12945	-140.21696	1715.32070	-656.45939	-40.57731	1645.64672	-498.98369	-49.43789	1641.38649	-557.11485	-6.57944	1704.98704	-278.45989	132.14010	1578.04929	-167.99075	96.13798	1649.21377	-122.03878	211.16803	1758.79938	-188.94130	251.10006	1814.15310	-248.64949	278.55499	1801.95885	-214.34134	-173.80575	1717.95954	-771.15352	-170.55664	1596.74432	-987.87723	-184.56297	1685.90740	-985.35638	-112.86727	1717.59426	-984.89044	57.07649	1744.00965	-969.23282	59.28088	1740.03291	-1009.82002	-231.98762	1065.89798	-441.71197	-260.86107	1113.61950	-641.01522	-208.06122	1104.25340	-451.80176	-234.92027	1135.92660	-605.65750	
